# xmcd
#
# Track frame offsets:
#	150
#	17300
#	32249
#	49237
#	64398
#	80622
#	94408
#	111296
#	126967
#	141174
#	155880
#
# Disc length: 2319 seconds
#
# Revision: 1
# Processed by: cddbd v1.5.2PL0 Copyright (c) Steve Scherf et al.
# Submitted via: EZCDAudioConverter 6.0.5.1
#
DISCID=9e090d0b
DTITLE=William Michael Morgan - Vinyl
DYEAR=2016
DGENRE=Country
TTITLE0=People Like Me
TTITLE1=Vinyl
TTITLE2=Missing
TTITLE3=I Met A Girl
TTITLE4=Spend It All On You
TTITLE5=Beer Drinker
TTITLE6=I Know Who He Is
TTITLE7=Cheap Cologne
TTITLE8=Somethin' To Drink About
TTITLE9=Lonesomeville
TTITLE10=Back Seat Driver
EXTD=
EXTT0=
EXTT1=
EXTT2=
EXTT3=
EXTT4=
EXTT5=
EXTT6=
EXTT7=
EXTT8=
EXTT9=
EXTT10=
PLAYORDER=
